<?xml version="1.0" standalone="no"?>
<!DOCTYPE svg PUBLIC "-//W3C//DTD SVG 20010904//EN"
 "http://www.w3.org/TR/2001/REC-SVG-20010904/DTD/svg10.dtd">
<svg version="1.0" xmlns="http://www.w3.org/2000/svg"
 width="982.000000pt" height="982.000000pt" viewBox="0 0 982.000000 982.000000"
 preserveAspectRatio="xMidYMid meet">
<metadata>
Created by potrace 1.11, written by Peter Selinger 2001-2013
</metadata>
<g transform="translate(0.000000,982.000000) scale(0.100000,-0.100000)"
fill="#000000" stroke="none">
<path d="M4580 9811 c-87 -9 -153 -45 -227 -125 -105 -112 -107 -121 -111
-511 -2 -221 0 -344 8 -375 6 -25 33 -92 59 -150 165 -360 206 -563 221 -1090
5 -173 14 -335 20 -360 14 -55 45 -112 71 -128 27 -17 131 -30 314 -37 394
-15 631 -72 918 -217 436 -222 780 -576 994 -1025 136 -287 194 -566 194 -936
l0 -199 52 -55 c109 -116 162 -131 517 -143 438 -15 646 -64 1010 -237 74 -35
159 -71 188 -78 72 -19 412 -39 547 -32 144 8 223 32 307 97 72 54 108 112
129 205 16 75 24 777 10 861 -20 111 -60 166 -191 260 l-54 39 -380 10 -380
10 -12 50 c-6 28 -26 111 -44 185 -87 370 -263 796 -459 1115 l-80 130 255
256 c295 298 304 311 312 463 8 165 -33 230 -343 544 -204 208 -281 274 -370
319 -90 46 -219 41 -325 -13 -55 -27 -123 -87 -365 -316 -103 -98 -191 -178
-196 -178 -5 0 -82 43 -171 97 -365 216 -769 384 -1175 489 l-113 29 0 330 c0
427 -10 474 -127 596 -62 65 -120 94 -220 109 -82 13 -691 21 -783 11z"/>
<path d="M2002 9361 c-73 -34 -100 -59 -126 -116 -45 -93 -32 -155 52 -261 21
-27 127 -140 234 -251 355 -365 395 -423 413 -594 14 -133 -22 -249 -117 -375
-76 -102 -351 -372 -435 -427 -203 -135 -429 -124 -620 30 -34 27 -157 140
-273 251 -278 264 -305 285 -381 290 -101 7 -192 -52 -235 -153 -18 -44 -18
-147 1 -305 40 -338 158 -623 365 -885 74 -93 265 -273 370 -347 285 -203 565
-281 1105 -308 121 -6 247 -16 279 -21 145 -25 265 -94 471 -270 133 -114
1923 -1895 2318 -2307 256 -267 329 -358 368 -461 47 -126 50 -156 59 -486 10
-355 19 -456 57 -625 32 -145 62 -229 129 -360 127 -246 359 -503 604 -667
164 -110 372 -195 567 -233 217 -42 574 -51 641 -16 71 37 125 127 125 208 0
84 -19 108 -397 505 -298 312 -320 350 -320 548 0 143 16 198 90 303 65 91
362 386 453 451 103 71 156 86 316 86 121 0 134 -2 185 -27 65 -32 191 -140
385 -328 258 -250 301 -287 356 -300 90 -22 185 18 241 101 37 55 42 88 35
248 -25 635 -406 1203 -997 1485 -237 113 -335 133 -804 161 -524 32 -552 46
-1003 484 -369 358 -2084 2078 -2229 2237 -142 154 -194 225 -232 317 -73 174
-95 333 -86 600 13 343 -41 617 -170 878 -132 265 -346 508 -585 665 -116 76
-333 182 -446 219 -120 39 -314 65 -530 71 -177 5 -193 4 -233 -15z"/>
<path d="M330 5692 c-106 -23 -221 -116 -271 -217 -41 -85 -48 -170 -49 -614
l0 -354 31 -48 c41 -65 145 -160 203 -188 69 -32 174 -41 493 -41 260 0 282
-1 287 -17 2 -10 10 -45 16 -78 75 -394 281 -930 492 -1278 32 -54 62 -105 65
-113 3 -9 -67 -88 -204 -227 -292 -296 -314 -327 -334 -459 -28 -179 36 -283
384 -625 271 -267 332 -305 487 -305 131 0 201 47 501 338 111 107 206 194
212 194 6 0 65 -35 131 -79 333 -217 761 -404 1161 -506 l170 -44 6 -328 c6
-343 13 -401 54 -483 28 -56 121 -145 178 -170 74 -33 162 -40 554 -47 l382
-6 72 43 c129 77 178 132 206 235 17 63 37 461 31 621 l-5 120 -53 115 c-92
197 -173 452 -206 644 -8 44 -18 227 -24 410 -6 182 -15 361 -21 400 -11 74
-46 147 -80 165 -22 12 -155 24 -444 40 -214 11 -301 28 -498 94 -649 216
-1142 708 -1371 1364 -67 193 -88 334 -105 717 -9 210 -14 229 -76 283 -85 76
-136 87 -480 107 -511 30 -634 60 -1027 246 l-186 89 -324 5 c-177 2 -339 1
-358 -3z"/>
</g>
</svg>
